<svg xmlns="http://www.w3.org/2000/svg" width="170" height="28" viewBox="0 0 170 28" role="img" aria-label="SimpleMicrobiome">
  <defs>
    <linearGradient id="bg" x1="0" y1="0" x2="1" y2="1">
      <stop offset="0%" stop-color="#0b1f33"/>
      <stop offset="100%" stop-color="#134e4a"/>
    </linearGradient>
  </defs>
  <rect x="0.5" y="0.5" width="27" height="27" rx="6" fill="url(#bg)"/>
  <circle cx="14" cy="14" r="8.8" fill="none" stroke="#d1fae5" stroke-width="1.2" opacity="0.8"/>
  <path d="M8.8 9.6L13.9 7.4L19.6 10.1L20.1 16.6L14.2 20.3L8.6 17.2Z" fill="none" stroke="#93c5fd" stroke-width="1.2" stroke-linejoin="round"/>
  <path d="M13.9 7.4L14.2 20.3M8.8 9.6L20.1 16.6M19.6 10.1L8.6 17.2" fill="none" stroke="#99f6e4" stroke-width="1.1" stroke-linecap="round"/>
  <circle cx="13.9" cy="7.4" r="1.35" fill="#fef08a"/>
  <circle cx="8.8" cy="9.6" r="1.2" fill="#86efac"/>
  <circle cx="19.6" cy="10.1" r="1.2" fill="#7dd3fc"/>
  <circle cx="20.1" cy="16.6" r="1.2" fill="#fca5a5"/>
  <circle cx="14.2" cy="20.3" r="1.3" fill="#c4b5fd"/>
  <circle cx="8.6" cy="17.2" r="1.1" fill="#fdba74"/>
  <circle cx="14.0" cy="13.8" r="1.0" fill="#e2e8f0"/>
  <text x="36" y="18.8" fill="#f8fafc" font-family="'Nunito', 'Avenir Next', 'Segoe UI', 'Trebuchet MS', sans-serif" font-weight="600" font-size="13.8" letter-spacing="0.1">SimpleMicrobiome</text>
</svg>
